<?xml version="1.0" encoding="UTF-8"?>
<!-- Generator: Adobe Illustrator 18.1.1, SVG Export Plug-In . SVG Version: 6.00 Build 0)  -->
<!DOCTYPE svg PUBLIC "-//W3C//DTD SVG 1.1//EN" "http://www.w3.org/Graphics/SVG/1.1/DTD/svg11.dtd">
<svg version="1.1" id="mandala_tracé" xmlns="http://www.w3.org/2000/svg" xmlns:xlink="http://www.w3.org/1999/xlink" x="0px" y="0px" viewBox="0 0 136.1 136.1" enable-background="new 0 0 136.1 136.1" xml:space="preserve">
<path fill="#52A7DC" d="M31.6,35.8c-20.9,21-27.1,51-18.6,77.4h12.5c-9-23.1-4.2-50.3,14.5-69C62.1,22,96.3,19.3,121.4,36V22.2  C92.5,7,55.9,11.5,31.6,35.8z"/>
<path fill="#EE704C" d="M36.1,40.3C16.4,60,10.9,88.6,19.7,113.2h11.7C22,91.6,26.1,65.6,43.8,48c22.9-23,60.1-23.2,83.3-0.6V33.2  C99.6,13.1,60.9,15.5,36.1,40.3z"/>
<ellipse fill="#DADADA" cx="67.8" cy="130.6" rx="27.9" ry="4"/>
<path fill="#814795" d="M40.8,45c-18.4,18.5-23.1,45.4-14,68.2h10.7c-9.7-20-6.3-44.7,10.3-61.3c17.4-17.5,43.9-20.4,64.4-8.8v-11  C88.7,21.4,60.1,25.7,40.8,45z"/>
<path fill="#49B69F" d="M44.8,50c-17.1,17.1-20.9,42.5-11.4,63.3h9.8C33,95.1,35.5,71.6,51,56.1c16.6-16.7,42.6-18.5,61.2-5.3V40.5  C90.7,28.5,63,31.7,44.8,50z"/>
<path fill="#EE7899" d="M49.5,54.7c-15.8,15.9-18.7,39.8-8.7,58.6h9c-11-16.3-9.3-38.7,5.1-53.1c16.3-16.3,42.7-16.5,59.2-0.4V49.7  C94.6,35.4,67.1,37,49.5,54.7z"/>
</svg>