<?xml version="1.0" encoding="UTF-8"?>
<!-- Generator: Adobe Illustrator 18.1.1, SVG Export Plug-In . SVG Version: 6.00 Build 0)  -->
<!DOCTYPE svg PUBLIC "-//W3C//DTD SVG 1.1//EN" "http://www.w3.org/Graphics/SVG/1.1/DTD/svg11.dtd">
<svg version="1.1" id="mandala_tracé" xmlns="http://www.w3.org/2000/svg" xmlns:xlink="http://www.w3.org/1999/xlink" x="0px" y="0px" viewBox="0 0 136.1 136.1" enable-background="new 0 0 136.1 136.1" xml:space="preserve">
<ellipse fill="#DADADA" cx="68.1" cy="130.6" rx="27.9" ry="4"/>
<circle fill="#FFFFFF" stroke="#EE704C" stroke-width="3" stroke-miterlimit="10" cx="68" cy="63.3" r="57.7"/>
<path fill="#EE704C" d="M69.8,66.4V115c0,0,22.8,0.2,33-14.7C75,71.1,69.8,66.4,69.8,66.4z"/>
<path fill="#EE704C" d="M67,66.4V115c0,0-22.8,0.2-33-14.7C61.7,71.1,67,66.4,67,66.4z"/>
<path fill="#EE704C" d="M69.8,60.4V11.8c0,0,22.8-0.2,33,14.7C75,55.7,69.8,60.4,69.8,60.4z"/>
<path fill="#EE704C" d="M67,60.4V11.8c0,0-22.8-0.2-33,14.7C61.7,55.7,67,60.4,67,60.4z"/>
<path fill="#EE704C" d="M64.2,61.9H15.6c0,0-0.2-22.8,14.7-33C59.5,56.6,64.2,61.9,64.2,61.9z"/>
<path fill="#EE704C" d="M64.2,64.3H15.6c0,0-0.2,22.8,14.7,33C59.5,69.5,64.2,64.3,64.2,64.3z"/>
<path fill="#EE704C" d="M71.3,64.3h48.6c0,0,0.2,22.8-14.7,33C76,69.5,71.3,64.3,71.3,64.3z"/>
<path fill="#EE704C" d="M71.3,61.9h48.6c0,0,0.2-22.8-14.7-33C76,56.6,71.3,61.9,71.3,61.9z"/>
<circle fill="#F5AE94" cx="53.8" cy="26.5" r="1.2"/>
<circle fill="#F5AE94" cx="47.2" cy="32.5" r="1.2"/>
<circle fill="#F5AE94" cx="48.5" cy="26.5" r="1.2"/>
<circle fill="#F5AE94" cx="62.1" cy="17.6" r="1.2"/>
<circle fill="#F5AE94" cx="54.9" cy="17.6" r="1.2"/>
<circle fill="#F5AE94" cx="58.5" cy="24.1" r="1.2"/>
<circle fill="#F5AE94" cx="59.7" cy="48.1" r="1.2"/>
<circle fill="#F5AE94" cx="63.4" cy="44.1" r="1.2"/>
<circle fill="#F5AE94" cx="64.2" cy="51.9" r="1.2"/>
<circle fill="#F5AE94" cx="58.5" cy="37.3" r="1.2"/>
<circle fill="#F5AE94" cx="56.1" cy="44.1" r="1.2"/>
<circle fill="#F5AE94" cx="52.6" cy="38.5" r="1.2"/>
<circle fill="#F5AE94" cx="60.9" cy="30" r="1.2"/>
<circle fill="#F5AE94" cx="53.8" cy="32.5" r="1.2"/>
<circle fill="#F5AE94" cx="64.2" cy="24.1" r="1.2"/>
<circle fill="#F5AE94" cx="47.2" cy="20.4" r="1.2"/>
<circle fill="#F5AE94" cx="63.4" cy="36.1" r="1.2"/>
<circle fill="#F5AE94" cx="41.7" cy="26.5" r="1.2"/>
<circle fill="#F5AE94" cx="84.4" cy="27" r="1.2"/>
<circle fill="#F5AE94" cx="75.5" cy="26.6" r="1.2"/>
<circle fill="#F5AE94" cx="80.6" cy="23.2" r="1.2"/>
<circle fill="#F5AE94" cx="96.5" cy="26.7" r="1.2"/>
<circle fill="#F5AE94" cx="91.4" cy="21.5" r="1.2"/>
<circle fill="#F5AE94" cx="89.4" cy="28.6" r="1.2"/>
<circle fill="#F5AE94" cx="73.3" cy="46.5" r="1.2"/>
<circle fill="#F5AE94" cx="78.7" cy="46.2" r="1.2"/>
<circle fill="#F5AE94" cx="73.7" cy="52.3" r="1.2"/>
<circle fill="#F5AE94" cx="80.1" cy="38" r="1.2"/>
<circle fill="#F5AE94" cx="73.5" cy="41.1" r="1.2"/>
<circle fill="#F5AE94" cx="75.1" cy="34.7" r="1.2"/>
<circle fill="#F5AE94" cx="86.9" cy="34.6" r="1.2"/>
<circle fill="#F5AE94" cx="80.2" cy="31.2" r="1.2"/>
<circle fill="#F5AE94" cx="93.5" cy="32.6" r="1.2"/>
<circle fill="#F5AE94" cx="84.1" cy="18.1" r="1.2"/>
<circle fill="#F5AE94" cx="84.4" cy="40.5" r="1.2"/>
<circle fill="#F5AE94" cx="75.8" cy="18.4" r="1.2"/>
<g>
	<circle fill="#F5AE94" cx="105.7" cy="48.1" r="1.2"/>
	<circle fill="#F5AE94" cx="99.7" cy="41.5" r="1.2"/>
	<circle fill="#F5AE94" cx="105.7" cy="42.7" r="1.2"/>
	<circle fill="#F5AE94" cx="114.6" cy="56.4" r="1.2"/>
	<circle fill="#F5AE94" cx="114.6" cy="49.1" r="1.2"/>
	<circle fill="#F5AE94" cx="108.1" cy="52.7" r="1.2"/>
	<circle fill="#F5AE94" cx="84.1" cy="54" r="1.2"/>
	<circle fill="#F5AE94" cx="88.1" cy="57.6" r="1.2"/>
	<circle fill="#F5AE94" cx="80.3" cy="58.4" r="1.2"/>
	<circle fill="#F5AE94" cx="94.9" cy="52.7" r="1.2"/>
	<circle fill="#F5AE94" cx="88.1" cy="50.3" r="1.2"/>
	<circle fill="#F5AE94" cx="93.7" cy="46.9" r="1.2"/>
	<circle fill="#F5AE94" cx="102.2" cy="55.2" r="1.2"/>
	<circle fill="#F5AE94" cx="99.7" cy="48.1" r="1.2"/>
	<circle fill="#F5AE94" cx="108.1" cy="58.4" r="1.2"/>
	<circle fill="#F5AE94" cx="111.8" cy="41.5" r="1.2"/>
	<circle fill="#F5AE94" cx="96.1" cy="57.6" r="1.2"/>
	<circle fill="#F5AE94" cx="105.7" cy="35.9" r="1.2"/>
	<circle fill="#F5AE94" cx="105.2" cy="78.7" r="1.2"/>
	<circle fill="#F5AE94" cx="105.6" cy="69.8" r="1.2"/>
	<circle fill="#F5AE94" cx="109" cy="74.9" r="1.2"/>
	<circle fill="#F5AE94" cx="110.7" cy="85.6" r="1.2"/>
	<circle fill="#F5AE94" cx="106.8" cy="91.9" r="1.2"/>
	<circle fill="#F5AE94" cx="103.6" cy="83.7" r="1.2"/>
	<circle fill="#F5AE94" cx="85.7" cy="67.5" r="1.2"/>
	<circle fill="#F5AE94" cx="86" cy="72.9" r="1.2"/>
	<circle fill="#F5AE94" cx="79.9" cy="68" r="1.2"/>
	<circle fill="#F5AE94" cx="94.2" cy="74.3" r="1.2"/>
	<circle fill="#F5AE94" cx="91.1" cy="67.8" r="1.2"/>
	<circle fill="#F5AE94" cx="97.5" cy="69.3" r="1.2"/>
	<circle fill="#F5AE94" cx="97.6" cy="81.2" r="1.2"/>
	<circle fill="#F5AE94" cx="101" cy="74.4" r="1.2"/>
	<circle fill="#F5AE94" cx="99.6" cy="87.7" r="1.2"/>
	<circle fill="#F5AE94" cx="114.1" cy="78.3" r="1.2"/>
	<circle fill="#F5AE94" cx="91.7" cy="78.6" r="1.2"/>
	<circle fill="#F5AE94" cx="113.8" cy="70.1" r="1.2"/>
</g>
<g>
	<circle fill="#F5AE94" cx="30.1" cy="78.8" r="1.2"/>
	<circle fill="#F5AE94" cx="36.1" cy="85.4" r="1.2"/>
	<circle fill="#F5AE94" cx="30.1" cy="84.1" r="1.2"/>
	<circle fill="#F5AE94" cx="21.2" cy="70.5" r="1.2"/>
	<circle fill="#F5AE94" cx="21.2" cy="77.7" r="1.2"/>
	<circle fill="#F5AE94" cx="27.6" cy="74.1" r="1.2"/>
	<circle fill="#F5AE94" cx="51.7" cy="72.9" r="1.2"/>
	<circle fill="#F5AE94" cx="47.7" cy="69.3" r="1.2"/>
	<circle fill="#F5AE94" cx="55.5" cy="68.4" r="1.2"/>
	<circle fill="#F5AE94" cx="40.9" cy="74.1" r="1.2"/>
	<circle fill="#F5AE94" cx="47.7" cy="76.5" r="1.2"/>
	<circle fill="#F5AE94" cx="42.1" cy="80" r="1.2"/>
	<circle fill="#F5AE94" cx="33.6" cy="71.7" r="1.2"/>
	<circle fill="#F5AE94" cx="36.1" cy="78.8" r="1.2"/>
	<circle fill="#F5AE94" cx="27.6" cy="68.4" r="1.2"/>
	<circle fill="#F5AE94" cx="24" cy="85.4" r="1.2"/>
	<circle fill="#F5AE94" cx="39.7" cy="69.3" r="1.2"/>
	<circle fill="#F5AE94" cx="30.1" cy="90.9" r="1.2"/>
	<circle fill="#F5AE94" cx="30.6" cy="48.2" r="1.2"/>
	<circle fill="#F5AE94" cx="30.2" cy="57.1" r="1.2"/>
	<circle fill="#F5AE94" cx="26.8" cy="52" r="1.2"/>
	<circle fill="#F5AE94" cx="25.1" cy="41.2" r="1.2"/>
	<circle fill="#F5AE94" cx="29" cy="34.9" r="1.2"/>
	<circle fill="#F5AE94" cx="32.2" cy="43.2" r="1.2"/>
	<circle fill="#F5AE94" cx="50.1" cy="59.3" r="1.2"/>
	<circle fill="#F5AE94" cx="49.8" cy="53.9" r="1.2"/>
	<circle fill="#F5AE94" cx="55.9" cy="58.9" r="1.2"/>
	<circle fill="#F5AE94" cx="41.6" cy="52.5" r="1.2"/>
	<circle fill="#F5AE94" cx="44.7" cy="59.1" r="1.2"/>
	<circle fill="#F5AE94" cx="38.3" cy="57.5" r="1.2"/>
	<circle fill="#F5AE94" cx="38.1" cy="45.7" r="1.2"/>
	<circle fill="#F5AE94" cx="34.8" cy="52.4" r="1.2"/>
	<circle fill="#F5AE94" cx="36.2" cy="39.2" r="1.2"/>
	<circle fill="#F5AE94" cx="21.7" cy="48.6" r="1.2"/>
	<circle fill="#F5AE94" cx="44.1" cy="48.2" r="1.2"/>
	<circle fill="#F5AE94" cx="22" cy="56.8" r="1.2"/>
</g>
<g>
	<circle fill="#F5AE94" cx="83.8" cy="99.4" r="1.2"/>
	<circle fill="#F5AE94" cx="90.4" cy="93.4" r="1.2"/>
	<circle fill="#F5AE94" cx="89.2" cy="99.4" r="1.2"/>
	<circle fill="#F5AE94" cx="75.5" cy="108.3" r="1.2"/>
	<circle fill="#F5AE94" cx="82.7" cy="108.3" r="1.2"/>
	<circle fill="#F5AE94" cx="79.1" cy="101.8" r="1.2"/>
	<circle fill="#F5AE94" cx="77.9" cy="77.8" r="1.2"/>
	<circle fill="#F5AE94" cx="74.3" cy="81.8" r="1.2"/>
	<circle fill="#F5AE94" cx="73.4" cy="74" r="1.2"/>
	<circle fill="#F5AE94" cx="79.1" cy="88.6" r="1.2"/>
	<circle fill="#F5AE94" cx="81.5" cy="81.8" r="1.2"/>
	<circle fill="#F5AE94" cx="85" cy="87.4" r="1.2"/>
	<circle fill="#F5AE94" cx="76.7" cy="95.9" r="1.2"/>
	<circle fill="#F5AE94" cx="83.8" cy="93.4" r="1.2"/>
	<circle fill="#F5AE94" cx="73.4" cy="101.8" r="1.2"/>
	<circle fill="#F5AE94" cx="90.4" cy="105.5" r="1.2"/>
	<circle fill="#F5AE94" cx="74.3" cy="89.8" r="1.2"/>
	<circle fill="#F5AE94" cx="95.9" cy="99.4" r="1.2"/>
	<circle fill="#F5AE94" cx="53.2" cy="98.9" r="1.2"/>
	<circle fill="#F5AE94" cx="62.1" cy="99.3" r="1.2"/>
	<circle fill="#F5AE94" cx="57" cy="102.7" r="1.2"/>
	<circle fill="#F5AE94" cx="46.2" cy="104.4" r="1.2"/>
	<circle fill="#F5AE94" cx="39.9" cy="100.5" r="1.2"/>
	<circle fill="#F5AE94" cx="48.2" cy="97.3" r="1.2"/>
	<circle fill="#F5AE94" cx="64.3" cy="79.4" r="1.2"/>
	<circle fill="#F5AE94" cx="58.9" cy="79.7" r="1.2"/>
	<circle fill="#F5AE94" cx="63.9" cy="73.6" r="1.2"/>
	<circle fill="#F5AE94" cx="57.5" cy="87.9" r="1.2"/>
	<circle fill="#F5AE94" cx="64.1" cy="84.8" r="1.2"/>
	<circle fill="#F5AE94" cx="62.6" cy="91.2" r="1.2"/>
	<circle fill="#F5AE94" cx="50.7" cy="91.3" r="1.2"/>
	<circle fill="#F5AE94" cx="57.4" cy="94.6" r="1.2"/>
	<circle fill="#F5AE94" cx="44.2" cy="93.3" r="1.2"/>
	<circle fill="#F5AE94" cx="53.6" cy="107.8" r="1.2"/>
	<circle fill="#F5AE94" cx="53.2" cy="85.4" r="1.2"/>
	<circle fill="#F5AE94" cx="61.8" cy="107.5" r="1.2"/>
</g>
</svg>