<?xml version="1.0" encoding="utf-8"?>
<!-- Generator: Adobe Illustrator 18.1.0, SVG Export Plug-In . SVG Version: 6.00 Build 0)  -->
<!DOCTYPE svg PUBLIC "-//W3C//DTD SVG 1.1//EN" "http://www.w3.org/Graphics/SVG/1.1/DTD/svg11.dtd">
<svg version="1.1" id="mandala_tracé" xmlns="http://www.w3.org/2000/svg" xmlns:xlink="http://www.w3.org/1999/xlink" x="0px"
	 y="0px" viewBox="0 0 86.7 82.8" enable-background="new 0 0 86.7 82.8" xml:space="preserve">
<pattern  x="-369.2" y="-250.9" width="54.6" height="3.2" patternUnits="userSpaceOnUse" id="Nouvelle_nuance_de_motif_2" viewBox="0 -3.2 54.6 3.2" overflow="visible">
	<g>
		<polygon fill="none" points="0,0 54.6,0 54.6,-3.2 0,-3.2 		"/>
		<polygon fill="#EE7899" points="3.4,0 1.7,0 1.7,-3.2 3.4,-3.2 		"/>
		<polygon fill="#EE7899" points="6.8,0 5.1,0 5.1,-3.2 6.8,-3.2 		"/>
		<polygon fill="#FFFFFF" points="1.7,0 0,0 0,-3.2 1.7,-3.2 		"/>
		<polygon fill="#FFFFFF" points="5.1,0 3.4,0 3.4,-3.2 5.1,-3.2 		"/>
		<polygon fill="#EE7899" points="10.2,0 8.5,0 8.5,-3.2 10.2,-3.2 		"/>
		<polygon fill="#EE7899" points="13.6,0 11.9,0 11.9,-3.2 13.6,-3.2 		"/>
		<polygon fill="#FFFFFF" points="8.5,0 6.8,0 6.8,-3.2 8.5,-3.2 		"/>
		<polygon fill="#FFFFFF" points="11.9,0 10.2,0 10.2,-3.2 11.9,-3.2 		"/>
		<polygon fill="#EE7899" points="17.1,0 15.4,0 15.4,-3.2 17.1,-3.2 		"/>
		<polygon fill="#EE7899" points="20.5,0 18.8,0 18.8,-3.2 20.5,-3.2 		"/>
		<polygon fill="#FFFFFF" points="15.4,0 13.6,0 13.6,-3.2 15.4,-3.2 		"/>
		<polygon fill="#FFFFFF" points="18.8,0 17.1,0 17.1,-3.2 18.8,-3.2 		"/>
		<polygon fill="#EE7899" points="23.9,0 22.2,0 22.2,-3.2 23.9,-3.2 		"/>
		<polygon fill="#EE7899" points="27.3,0 25.6,0 25.6,-3.2 27.3,-3.2 		"/>
		<polygon fill="#FFFFFF" points="22.2,0 20.5,0 20.5,-3.2 22.2,-3.2 		"/>
		<polygon fill="#FFFFFF" points="25.6,0 23.9,0 23.9,-3.2 25.6,-3.2 		"/>
		<polygon fill="#EE7899" points="30.7,0 29,0 29,-3.2 30.7,-3.2 		"/>
		<polygon fill="#EE7899" points="34.1,0 32.4,0 32.4,-3.2 34.1,-3.2 		"/>
		<polygon fill="#FFFFFF" points="29,0 27.3,0 27.3,-3.2 29,-3.2 		"/>
		<polygon fill="#FFFFFF" points="32.4,0 30.7,0 30.7,-3.2 32.4,-3.2 		"/>
		<polygon fill="#EE7899" points="37.5,0 35.8,0 35.8,-3.2 37.5,-3.2 		"/>
		<polygon fill="#EE7899" points="41,0 39.2,0 39.2,-3.2 41,-3.2 		"/>
		<polygon fill="#FFFFFF" points="35.8,0 34.1,0 34.1,-3.2 35.8,-3.2 		"/>
		<polygon fill="#FFFFFF" points="39.2,0 37.5,0 37.5,-3.2 39.2,-3.2 		"/>
		<polygon fill="#EE7899" points="44.4,0 42.7,0 42.7,-3.2 44.4,-3.2 		"/>
		<polygon fill="#EE7899" points="47.8,0 46.1,0 46.1,-3.2 47.8,-3.2 		"/>
		<polygon fill="#FFFFFF" points="42.7,0 40.9,0 40.9,-3.2 42.7,-3.2 		"/>
		<polygon fill="#FFFFFF" points="46.1,0 44.4,0 44.4,-3.2 46.1,-3.2 		"/>
		<polygon fill="#EE7899" points="51.2,0 49.5,0 49.5,-3.2 51.2,-3.2 		"/>
		<polygon fill="#EE7899" points="54.6,0 52.9,0 52.9,-3.2 54.6,-3.2 		"/>
		<polygon fill="#FFFFFF" points="49.5,0 47.8,0 47.8,-3.2 49.5,-3.2 		"/>
		<polygon fill="#FFFFFF" points="52.9,0 51.2,0 51.2,-3.2 52.9,-3.2 		"/>
	</g>
</pattern>
<path fill="#49B69F" d="M83.7,67.4H3c-1.3,0-2.3-1-2.3-2.3V3c0-1.3,1-2.3,2.3-2.3h80.7c1.3,0,2.3,1,2.3,2.3v62.1
	C85.9,66.4,84.9,67.4,83.7,67.4z"/>
<path fill="#2F917E" d="M1,65.2l-0.1,0.1c0,0,0.6,2.1,3.4,2.1C4.3,67.4,43.3,34,43.3,34L1,65.2z"/>
<path fill="#2F917E" d="M85.8,65.2l0.1,0.1c0,0-0.6,2.1-3.4,2.1C82.4,67.4,43.4,34,43.4,34L85.8,65.2z"/>
<path fill="url(#Nouvelle_nuance_de_motif_2)" d="M0.8,4.2L43.4,34L85.9,4.2c0,0,0-3.5-2.9-3.5C43.4,29.3,43.4,29.3,43.4,29.3
	L3.7,0.7C3.7,0.7,0.8,1.6,0.8,4.2z"/>
<g>
	<path fill="#2F917E" d="M54.2,34.8c-0.2-5.5-4.4-9.6-10.1-9.4c-5.7,0.2-9.5,4.6-9.3,10.1c0.2,5.5,4.3,9.6,10,9.4
		C50.6,44.7,54.4,40.4,54.2,34.8"/>
</g>
<path fill="none" stroke="#EE7899" stroke-width="1.5" stroke-miterlimit="10" d="M83.7,67.4H3c-1.3,0-2.3-1-2.3-2.3V3
	c0-1.3,1-2.3,2.3-2.3h80.7c1.3,0,2.3,1,2.3,2.3v62.1C85.9,66.4,84.9,67.4,83.7,67.4z"/>
<g>
	<path fill="none" stroke="#FFFFFF" stroke-width="2" stroke-miterlimit="10" d="M52.3,33.9c0-5.1-3.7-9-9-9c-5.3,0-8.9,3.9-8.9,9
		c0,5.1,3.7,9,8.9,9C48.6,42.9,52.3,39,52.3,33.9"/>
</g>
<g>
	<g>
		<path fill="#FFFFFF" d="M51.3,33.6c-0.2-4.6-3.6-7.9-8.3-7.7c-4.7,0.2-7.8,3.8-7.7,8.3c0.2,4.6,3.6,7.9,8.3,7.7
			C48.3,41.7,51.5,38.2,51.3,33.6"/>
	</g>
	<g>
		<path fill="#844695" d="M47.4,29.1c-0.1,1.7-1.6,2.9-2.2,4c-0.5,0.9-0.9,2.1-1,3.6c-0.1,1,0,2-0.5,2.5c-1.2,1-3.3-0.2-2.7-1.9
			c1-2.9,4.3-4.3,5.2-6.4c-0.4,0.2-0.4,0.4-1,0.5c-1.1,0.2-2.1-0.5-3.1-0.6c-1.2-0.2-1.9,0.5-2.5,1c-0.7-2.6,0.9-3.8,2.9-3.5
			c1.1,0.1,2,0.9,2.9,1.2c1.1,0.3,1.8-0.2,2-1C47.6,28.4,47.5,28.9,47.4,29.1 M52.3,33.9c0-5.1-3.7-9-9-9c-5.3,0-8.9,3.9-8.9,9
			c0,5.1,3.7,9,8.9,9C48.6,42.9,52.3,39,52.3,33.9"/>
	</g>
</g>
<ellipse fill="#DADADA" cx="43.4" cy="78.9" rx="32.7" ry="4"/>
</svg>
