<?xml version="1.0" encoding="utf-8"?>
<!-- Generator: Adobe Illustrator 18.1.0, SVG Export Plug-In . SVG Version: 6.00 Build 0)  -->
<!DOCTYPE svg PUBLIC "-//W3C//DTD SVG 1.1//EN" "http://www.w3.org/Graphics/SVG/1.1/DTD/svg11.dtd">
<svg version="1.1" id="mandala_tracé" xmlns="http://www.w3.org/2000/svg" xmlns:xlink="http://www.w3.org/1999/xlink" x="0px"
	 y="0px" viewBox="0 0 115.5 133.6" enable-background="new 0 0 115.5 133.6" xml:space="preserve">
<ellipse fill="#D9D9D9" cx="57.6" cy="129.6" rx="27.9" ry="4"/>
<path fill="#ED704C" d="M28.6,60.3c-1.9-6.2-4.9-18.9-12.6-20.5c0,0-9.2-1.4-12.9,16.6c0,0.3-0.2,0.8-0.3,1.5
	c0.3,1.1,1.1,2.9,2.2,3.2c0.7,0.2,1.6-0.1,2.6-1.1l0.5-0.4l0.5,0.4c0.2,0.2,0.4,0.4,0.7,0.6c0.5,0.5,1,0.9,1.6,0.9
	c0.6,0,1.2-0.5,2.1-1.4l0.5-0.6l0.6,0.6c1,1,1.9,1.5,2.6,1.3c0.7-0.2,1.2-1.1,1.5-1.8l0.3-0.9l1.1,0.7c1.5,0.9,2.9,1.8,4.1,1.5
	c0.9-0.3,1.8-1.2,2.7-2.9l1.3,0.7c-1.1,2.1-2.3,3.3-3.6,3.7c-1.7,0.5-3.3-0.4-4.9-1.4c-0.6,1.1-1.3,1.7-2.2,1.9
	c-1,0.2-2.2-0.2-3.4-1.2c-0.9,0.9-1.7,1.3-2.6,1.4c0,0-0.1,0-0.1,0c-1.1,0-1.9-0.7-2.6-1.3c0,0-0.1-0.1-0.1-0.1
	c-1.3,1-2.5,1.3-3.6,1c-1-0.3-1.7-1.2-2.3-2.1c-0.5,2.4-1.1,5.6-1.5,9.2c0.8,1.3,2.5,3.5,4.1,3.5c0,0,0,0,0,0c0.9,0,1.8-0.8,2.7-2.4
	l0.6-1.1l0.7,1c1.7,2.5,2.6,2.7,2.9,2.6c0.3-0.1,1.1-0.5,1.7-3.2l0.4-2l0.9,1.8c0.8,1.6,2.4,3.2,3.3,3c0.8-0.1,1.4-1.7,1.7-4.2
	l0.2-1.8l1.3,1.6c0.9,1.1,2.9,3.7,4.4,3.4c1.1-0.3,2-2.1,2.7-5.2l1.5,0.3c-0.8,3.8-2,5.9-3.8,6.3c-1.9,0.5-3.8-1.3-5.1-2.8
	c-0.5,2.3-1.4,3.6-2.7,3.8c-1.5,0.3-3-1-4-2.3c-0.6,1.6-1.4,2.5-2.4,2.7c-0.1,0-0.3,0-0.4,0c-1.4,0-2.6-1.3-3.4-2.3
	c-1,1.4-2.1,2.2-3.4,2.2c0,0,0,0,0,0c-1.8,0-3.3-1.4-4.3-2.7c-0.4,3.9-0.7,8.2-0.5,12.4C1,86.2,2.5,88.1,3.5,88
	c0.7-0.1,1.4-1.3,1.9-3.3l0.5-2l0.9,1.8c1.2,2.4,2.8,4,3.9,3.9c0.9-0.1,1.8-1.5,2.3-3.9l0.5-1.9l0.9,1.7c1.2,2.3,3,3.8,4.1,3.6
	c1-0.1,1.8-1.5,2.3-3.9l0.4-1.7l1,1.4c1.6,2.3,3.2,3.5,4.5,3.3c1.5-0.2,2.6-2.1,3.2-3.7l1.4,0.6c-1.2,2.8-2.7,4.4-4.4,4.6
	c-1.6,0.2-3.3-0.8-4.9-2.7c-0.7,2.2-1.7,3.4-3.1,3.6c-1.7,0.3-3.5-1.2-4.7-3c-0.7,2.1-1.8,3.2-3.1,3.4c-0.1,0-0.2,0-0.3,0
	c-1.6,0-3.1-1.4-4.3-3.2c-0.7,1.8-1.6,2.7-2.7,2.8c-1.3,0.1-2.5-0.9-3.4-2c0.6,6.5,2.2,12.7,5.8,17.4c1.3,0.1,2.7-0.2,3-5.3
	c0.5,5.3,2.2,5.3,2.6,5.3c0.7,0,3.1-0.4,3.1-5.4c0.8,3.7,1.5,5.4,3.2,5.4c1.2,0,2.4-2.3,2.7-5.3c1.5,3.5,2.3,5.3,4.8,5.3
	C29.9,105.8,35,81,28.6,60.3z"/>
<path fill="#ED704C" d="M111.8,89.5c-1.1-0.1-2-1-2.7-2.8c-1.1,1.7-2.7,3.2-4.3,3.2c-0.1,0-0.2,0-0.3,0c-1.3-0.2-2.4-1.3-3.1-3.4
	c-1.3,1.7-3,3.2-4.7,3c-1.4-0.2-2.4-1.4-3.1-3.6c-1.6,1.9-3.3,2.9-4.9,2.7c-1.8-0.2-3.3-1.7-4.4-4.6l1.4-0.6
	c0.7,1.6,1.7,3.5,3.2,3.7c1.3,0.1,2.9-1,4.5-3.3l1-1.4l0.4,1.7c0.5,2.4,1.3,3.8,2.3,3.9c1.1,0.2,2.9-1.4,4.1-3.6l0.9-1.7l0.4,1.9
	c0.6,2.4,1.4,3.7,2.3,3.9c1.1,0.1,2.7-1.5,3.9-3.9l0.9-1.8l0.5,2c0.5,2.1,1.2,3.3,1.9,3.3c1,0.1,2.5-1.8,3.4-3.5
	c0.2-4.3-0.1-8.6-0.5-12.4c-1,1.3-2.6,2.7-4.3,2.7c0,0,0,0,0,0c-1.3,0-2.4-0.7-3.4-2.2c-0.8,1-2,2.3-3.4,2.3c-0.1,0-0.3,0-0.4,0
	c-1-0.2-1.8-1.1-2.4-2.7c-1,1.3-2.5,2.6-4,2.3c-1.3-0.2-2.2-1.5-2.7-3.8c-1.3,1.5-3.1,3.3-5.1,2.8c-1.8-0.4-3-2.5-3.8-6.3l1.5-0.3
	c0.6,3.1,1.6,4.9,2.7,5.2c1.5,0.4,3.6-2.2,4.4-3.4l1.3-1.6l0.2,1.8c0.3,2.5,1,4.1,1.7,4.2c0.9,0.2,2.4-1.4,3.3-3l0.9-1.8l0.4,2
	c0.6,2.7,1.4,3.1,1.7,3.2c0.3,0.1,1.2-0.1,2.9-2.6l0.7-1l0.6,1.1c0.8,1.6,1.7,2.4,2.7,2.4c0,0,0,0,0,0c1.6,0,3.3-2.2,4.1-3.5
	c-0.5-3.7-1-6.9-1.5-9.3c-0.5,0.9-1.3,1.7-2.3,2.1c-1.1,0.4-2.3,0-3.6-1c0,0-0.1,0.1-0.1,0.1c-0.6,0.6-1.4,1.3-2.6,1.3
	c0,0-0.1,0-0.1,0c-0.8,0-1.7-0.5-2.6-1.4c-1.2,1-2.4,1.5-3.4,1.2c-0.9-0.2-1.6-0.8-2.2-1.9c-1.6,1-3.2,1.8-4.9,1.4
	c-1.4-0.4-2.5-1.6-3.6-3.7l1.3-0.7c0.9,1.7,1.7,2.6,2.7,2.9c1.2,0.3,2.6-0.5,4.1-1.5l1.1-0.7l0.3,0.9c0.3,0.7,0.8,1.7,1.5,1.8
	c0.7,0.1,1.6-0.3,2.6-1.3l0.6-0.6l0.5,0.6c0.8,0.9,1.5,1.4,2.1,1.4c0.6,0,1.1-0.4,1.6-0.9c0.2-0.2,0.4-0.4,0.7-0.6l0.5-0.4l0.5,0.4
	c1,0.9,1.9,1.3,2.6,1.1c1.1-0.4,1.9-2.1,2.2-3.2c-0.1-0.7-0.3-1.2-0.3-1.5c-3.7-18-12.9-16.6-12.9-16.6
	c-7.7,1.5-10.6,14.3-12.6,20.5c-6.4,20.7-1.3,45.4,3.2,44.5c2.4,0,3.3-1.9,4.8-5.3c0.3,3,1.5,5.3,2.7,5.3c1.7,0,2.4-1.7,3.2-5.4
	c0,5,2.4,5.4,3.1,5.4c0.4,0,2,0,2.6-5.3c0.4,5.1,1.8,5.5,3,5.3c3.6-4.6,5.3-10.9,5.8-17.3C114.3,88.6,113.1,89.6,111.8,89.5z"/>
<path fill="#804794" d="M58.1,116.8c8.5,0,19.4-6.4,19.4-6.4C118.1,83.2,93.6,5.5,91.3,0c-4.5,14-18,10.5-21.2,8.5
	c-8.3-4.3-12-3.6-12-3.6s-4-0.6-12.2,3.6c-3.2,2-16.8,5.5-21.3-8.5C22.3,5.5-2.2,83.2,38.4,110.3c0,0,10.9,6.4,19.4,6.4H58.1z"/>
<polygon fill="#ED704C" points="58.1,41.5 47.9,51.2 58.1,64 68.2,51.2 "/>
<path fill="#ED704C" d="M53.6,117.1c-2.3-3.7-4.6-5-6.6-5.1c-2,0.1-4.4,1.4-6.6,5.1c-1,2.6,1.9,4.9,3.9,2.1c0.8,0.8,1.7,1.5,2.7,1.5
	c1,0,1.9-0.7,2.7-1.5C51.7,122,54.6,119.7,53.6,117.1z"/>
<path fill="#ED704C" d="M75.4,117.1c-2.3-3.7-4.6-5-6.6-5.1c-2,0.1-4.4,1.4-6.6,5.1c-1,2.6,1.9,4.9,3.9,2.1c0.8,0.8,1.7,1.5,2.7,1.5
	c1,0,1.9-0.7,2.7-1.5C73.5,122,76.5,119.7,75.4,117.1z"/>
<path fill="#FFFFFF" d="M57.8,69.5c0,0-17.6-1.2-19.4,25.7c0,1,3,12,19.4,12s19.3-11,19.4-12C75.4,68.3,57.8,69.5,57.8,69.5z"/>
<path fill="none" stroke="#804794" stroke-width="2" stroke-miterlimit="10" d="M45.7,72.7c0,0,13.8,4.9,25.3,0"/>
<path fill="none" stroke="#804794" stroke-width="2" stroke-miterlimit="10" d="M41.3,77.2c0,0,18.8,7.3,32.5-0.7"/>
<path fill="none" stroke="#804794" stroke-width="2" stroke-miterlimit="10" d="M39.4,82c0,0,19.9,9.3,37,0"/>
<path fill="none" stroke="#804794" stroke-width="2" stroke-miterlimit="10" d="M37.8,88.1c0,0,19.5,10.9,40.5,0.5"/>
<path fill="none" stroke="#804794" stroke-width="2" stroke-miterlimit="10" d="M36.9,93.7c0,0,19.7,10.8,42,0.2"/>
<path fill="none" stroke="#804794" stroke-width="2" stroke-miterlimit="10" d="M36.9,98.9c0,0,19.7,10.8,42,0.2"/>
<path fill="#FFFFFF" d="M74.8,16.3c-7.5,0-13.9,4.5-16.7,10.8c-2.9-6.4-9.3-10.8-16.7-10.8c-10.2,0-18.4,8.2-18.4,18.4
	c0,10.2,8.2,18.4,18.4,18.4c7.5,0,13.9-4.5,16.7-10.8C60.9,48.6,67.3,53,74.8,53c10.2,0,18.4-8.2,18.4-18.4
	C93.2,24.5,85,16.3,74.8,16.3z"/>
<circle fill="#47B59F" cx="74.8" cy="34.7" r="12.8"/>
<circle fill="#FFFFFF" cx="74.8" cy="34.7" r="2.9"/>
<circle fill="#47B59F" cx="41.3" cy="34.7" r="12.8"/>
<circle fill="#FFFFFF" cx="41.3" cy="34.7" r="2.9"/>
<path fill="#ED704C" d="M25.1,58.7h-3.4c0,0,3.4,1.6,3.4,5.2c0-3.6,3.4-5.2,3.4-5.2H25.1z"/>
<path fill="#ED704C" d="M29.2,63.9h-3.4c0,0,3.4,1.6,3.4,5.2c0-3.6,3.4-5.2,3.4-5.2H29.2z"/>
<path fill="#ED704C" d="M20.8,63.9h-3.4c0,0,3.4,1.6,3.4,5.2c0-3.6,3.4-5.2,3.4-5.2H20.8z"/>
<path fill="#ED704C" d="M37.8,63.9h-3.4c0,0,3.4,1.6,3.4,5.2c0-3.6,3.4-5.2,3.4-5.2H37.8z"/>
<path fill="#ED704C" d="M47,63.9h-3.4c0,0,3.4,1.6,3.4,5.2c0-3.6,3.4-5.2,3.4-5.2H47z"/>
<path fill="#ED704C" d="M33.4,69.1h-3.4c0,0,3.4,1.6,3.4,5.2c0-3.6,3.4-5.2,3.4-5.2H33.4z"/>
<path fill="#ED704C" d="M25,69.1h-3.4c0,0,3.4,1.6,3.4,5.2c0-3.6,3.4-5.2,3.4-5.2H25z"/>
<path fill="#ED704C" d="M42.2,69.1h-3.4c0,0,3.4,1.6,3.4,5.2c0-3.6,3.4-5.2,3.4-5.2H42.2z"/>
<path fill="#ED704C" d="M37.8,74.8h-3.4c0,0,3.4,1.6,3.4,5.2c0-3.6,3.4-5.2,3.4-5.2H37.8z"/>
<path fill="#ED704C" d="M29.2,74.8h-3.4c0,0,3.4,1.6,3.4,5.2c0-3.6,3.4-5.2,3.4-5.2H29.2z"/>
<path fill="#ED704C" d="M34.1,80.2h-3.4c0,0,3.4,1.6,3.4,5.2c0-3.6,3.4-5.2,3.4-5.2H34.1z"/>
<path fill="#ED704C" d="M25,80.2h-3.4c0,0,3.4,1.6,3.4,5.2c0-3.6,3.4-5.2,3.4-5.2H25z"/>
<path fill="#ED704C" d="M29.2,85.5h-3.4c0,0,3.4,1.6,3.4,5.2c0-3.6,3.4-5.2,3.4-5.2H29.2z"/>
<path fill="#ED704C" d="M33.4,58.7h-3.4c0,0,3.4,1.6,3.4,5.2c0-3.6,3.4-5.2,3.4-5.2H33.4z"/>
<path fill="#ED704C" d="M42.2,58.7h-3.4c0,0,3.4,1.6,3.4,5.2c0-3.6,3.4-5.2,3.4-5.2H42.2z"/>
<path fill="#ED704C" d="M73.4,58.7h-3.4c0,0,3.4,1.6,3.4,5.2c0-3.6,3.4-5.2,3.4-5.2H73.4z"/>
<path fill="#ED704C" d="M77.6,63.9h-3.4c0,0,3.4,1.6,3.4,5.2c0-3.6,3.4-5.2,3.4-5.2H77.6z"/>
<path fill="#ED704C" d="M69.1,63.9h-3.4c0,0,3.4,1.6,3.4,5.2c0-3.6,3.4-5.2,3.4-5.2H69.1z"/>
<path fill="#ED704C" d="M86.1,63.9h-3.4c0,0,3.4,1.6,3.4,5.2c0-3.6,3.4-5.2,3.4-5.2H86.1z"/>
<path fill="#ED704C" d="M95.3,63.9H92c0,0,3.4,1.6,3.4,5.2c0-3.6,3.4-5.2,3.4-5.2H95.3z"/>
<path fill="#ED704C" d="M81.8,69.1h-3.4c0,0,3.4,1.6,3.4,5.2c0-3.6,3.4-5.2,3.4-5.2H81.8z"/>
<path fill="#ED704C" d="M73.4,69.1h-3.4c0,0,3.4,1.6,3.4,5.2c0-3.6,3.4-5.2,3.4-5.2H73.4z"/>
<path fill="#ED704C" d="M90.6,69.1h-3.4c0,0,3.4,1.6,3.4,5.2c0-3.6,3.4-5.2,3.4-5.2H90.6z"/>
<path fill="#ED704C" d="M86.1,74.8h-3.4c0,0,3.4,1.6,3.4,5.2c0-3.6,3.4-5.2,3.4-5.2H86.1z"/>
<path fill="#ED704C" d="M86.1,85.5h-3.4c0,0,3.4,1.6,3.4,5.2c0-3.6,3.4-5.2,3.4-5.2H86.1z"/>
<path fill="#ED704C" d="M77.6,74.8h-3.4c0,0,3.4,1.6,3.4,5.2c0-3.6,3.4-5.2,3.4-5.2H77.6z"/>
<path fill="#ED704C" d="M82.4,80.2h-3.4c0,0,3.4,1.6,3.4,5.2c0-3.6,3.4-5.2,3.4-5.2H82.4z"/>
<path fill="#ED704C" d="M90.6,80.2h-3.4c0,0,3.4,1.6,3.4,5.2c0-3.6,3.4-5.2,3.4-5.2H90.6z"/>
<path fill="#ED704C" d="M81.8,58.7h-3.4c0,0,3.4,1.6,3.4,5.2c0-3.6,3.4-5.2,3.4-5.2H81.8z"/>
<path fill="#ED704C" d="M90.6,58.7h-3.4c0,0,3.4,1.6,3.4,5.2c0-3.6,3.4-5.2,3.4-5.2H90.6z"/>
</svg>
