<?xml version="1.0" encoding="utf-8"?>
<!-- Generator: Adobe Illustrator 18.1.0, SVG Export Plug-In . SVG Version: 6.00 Build 0)  -->
<!DOCTYPE svg PUBLIC "-//W3C//DTD SVG 1.1//EN" "http://www.w3.org/Graphics/SVG/1.1/DTD/svg11.dtd">
<svg version="1.1" id="Calque_1" xmlns="http://www.w3.org/2000/svg" xmlns:xlink="http://www.w3.org/1999/xlink" x="0px" y="0px"
	 viewBox="0 0 72.3 72.6" enable-background="new 0 0 72.3 72.6" xml:space="preserve">
<path fill="#662482" d="M36.1,0C14.8,0,0,15.7,0,36.4C0,57,14.8,72.6,36.1,72.6c21.3,0,36.2-15.6,36.2-36.2C72.3,15.7,57.4,0,36.1,0
	z M52.4,16.9c-0.6,6.9-6.4,11.6-9.1,16.2c-2.1,3.7-3.8,8.4-4.1,14.6C39,51.6,39.3,56,37,57.9C32,62,23.5,57,26.2,50.2
	C29.9,41,44.2,32.6,48,24c-1.7,0.6-2.8,1.9-4.7,2.2c-4.3,0.7-8.7-2-12.7-2.5c-5-0.6-7.6,1.9-10.2,3.9c-3-10.4,3.6-15.2,11.8-14.3
	c4.4,0.5,8.2,3.8,11.6,4.7c4.5,1.2,7.3-0.8,8-4.1C53.1,14.2,52.4,16.1,52.4,16.9z"/>
</svg>
