<?xml version="1.0" encoding="utf-8"?>
<!-- Generator: Adobe Illustrator 18.1.1, SVG Export Plug-In . SVG Version: 6.00 Build 0)  -->
<!DOCTYPE svg PUBLIC "-//W3C//DTD SVG 1.1//EN" "http://www.w3.org/Graphics/SVG/1.1/DTD/svg11.dtd">
<svg version="1.1" id="mandala_tracé" xmlns="http://www.w3.org/2000/svg" xmlns:xlink="http://www.w3.org/1999/xlink" x="0px"
	 y="0px" viewBox="0 0 136.1 136.1" enable-background="new 0 0 136.1 136.1" xml:space="preserve">
<ellipse fill="#DADADA" cx="68.1" cy="130.6" rx="27.9" ry="4"/>
<circle fill="#EE7899" cx="68" cy="63.3" r="57.7"/>
<ellipse transform="matrix(-0.9794 -0.2019 0.2019 -0.9794 92.2576 114.9001)" fill="#FFFFFF" cx="52" cy="52.7" rx="12.7" ry="15.4"/>
<ellipse transform="matrix(-0.9773 0.2119 -0.2119 -0.9773 177.7309 86.4422)" fill="#FFFFFF" cx="84.2" cy="52.7" rx="12.7" ry="15.4"/>
<ellipse transform="matrix(-1 4.090926e-03 -4.090926e-03 -1 165.8328 105.1509)" fill="#52A7DC" cx="82.8" cy="52.7" rx="5.9" ry="7.1"/>
<ellipse transform="matrix(-1 4.090926e-03 -4.090926e-03 -1 106.7627 105.2717)" fill="#52A7DC" cx="53.3" cy="52.7" rx="5.9" ry="7.1"/>
<circle fill="#FFFFFF" cx="84.2" cy="52.7" r="2.3"/>
<circle fill="#FFFFFF" cx="53.3" cy="52.7" r="2.3"/>
<g>
	<path fill="#814795" d="M56.9,35.7c0,0-0.4,0.1-1,0.3c-0.3,0.1-0.7,0.2-1.1,0.3c-0.4,0.1-0.9,0.3-1.4,0.5c-0.5,0.2-1,0.4-1.6,0.7
		c-0.6,0.2-1.1,0.6-1.7,0.8c-0.6,0.3-1.1,0.7-1.7,1c-0.6,0.4-1.1,0.8-1.7,1.2c-0.5,0.4-1.1,0.9-1.6,1.3c-0.5,0.4-1,0.9-1.4,1.4
		c-0.4,0.5-0.9,0.9-1.2,1.4c-0.4,0.5-0.7,0.9-1,1.3c-0.3,0.4-0.6,0.8-0.8,1.2c-0.2,0.4-0.5,0.7-0.6,1c-0.3,0.5-0.5,0.9-0.5,0.9
		s0-0.4,0.1-1c0-0.3,0.1-0.7,0.3-1.1c0.1-0.4,0.3-0.9,0.5-1.4c0.2-0.5,0.5-1.1,0.8-1.6c0.3-0.6,0.7-1.1,1.1-1.7
		c0.5-0.5,0.9-1.1,1.4-1.7c0.5-0.6,1.1-1,1.7-1.5c0.6-0.4,1.2-0.9,1.9-1.2c0.6-0.4,1.3-0.7,2-1c0.7-0.3,1.3-0.5,1.9-0.7
		c0.6-0.2,1.2-0.3,1.8-0.4c0.5-0.1,1.1-0.1,1.5-0.1c0.5,0,0.8,0,1.2,0C56.6,35.7,56.9,35.7,56.9,35.7z"/>
</g>
<path fill="#814795" d="M32.7,41.3c0,0,1.2,5.1,7.5,5.5C40,47.9,39.7,49,39.7,49S33,48.1,32.7,41.3z"/>
<path fill="#814795" d="M38.2,37.7c0,0-0.2,3.8,4.1,5.3c-0.4,0.8-0.8,1.5-0.8,1.5S37,42.5,38.2,37.7z"/>
<path fill="#814795" d="M42.5,35.9c0,0-0.8,2.8,2.2,4.7c-0.4,0.5-0.9,1-0.9,1S40.8,39.3,42.5,35.9z"/>
<g>
	<path fill="#814795" d="M79.4,35.7c0,0,0.4-0.1,1-0.1c0.3,0,0.7,0,1.2,0c0.5,0,1,0,1.5,0.1c0.6,0.1,1.2,0.2,1.8,0.4
		c0.6,0.2,1.3,0.4,1.9,0.7c0.6,0.3,1.3,0.6,2,1c0.7,0.4,1.3,0.8,1.9,1.2c0.6,0.5,1.2,1,1.7,1.5c0.5,0.5,1,1.1,1.4,1.7
		c0.4,0.6,0.8,1.1,1.1,1.7c0.3,0.6,0.6,1.1,0.8,1.6c0.2,0.5,0.4,1,0.5,1.4c0.1,0.4,0.2,0.8,0.3,1.1c0.1,0.6,0.1,1,0.1,1
		s-0.2-0.3-0.5-0.9c-0.1-0.3-0.4-0.6-0.6-1c-0.2-0.4-0.5-0.8-0.8-1.2c-0.3-0.4-0.7-0.9-1-1.3c-0.4-0.5-0.8-0.9-1.2-1.4
		c-0.5-0.5-0.9-0.9-1.4-1.4c-0.5-0.5-1-0.9-1.6-1.3c-0.6-0.4-1.1-0.8-1.7-1.2c-0.6-0.4-1.1-0.7-1.7-1c-0.6-0.3-1.1-0.6-1.7-0.8
		c-0.5-0.2-1.1-0.5-1.6-0.7c-0.5-0.2-0.9-0.4-1.4-0.5c-0.4-0.1-0.8-0.3-1.1-0.3C79.8,35.8,79.4,35.7,79.4,35.7z"/>
</g>
<path fill="#814795" d="M103.7,41.3c0,0-1.2,5.1-7.5,5.5c0.2,1.2,0.5,2.3,0.5,2.3S103.4,48.1,103.7,41.3z"/>
<path fill="#814795" d="M98.2,37.7c0,0,0.2,3.8-4.1,5.3c0.4,0.8,0.8,1.5,0.8,1.5S99.4,42.5,98.2,37.7z"/>
<path fill="#814795" d="M93.9,35.9c0,0,0.8,2.8-2.2,4.7c0.4,0.5,0.9,1,0.9,1S95.6,39.3,93.9,35.9z"/>
<g>
	<path fill="#814795" d="M61.1,93.1c0-1.4,1.3-3.7,2.6-4.1c1.4-0.4,3.3,0.4,4.2,1.5c0.2-0.9,1.6-1.9,2.5-1.9c4.4,0,4.8,4.2,4.8,4.4
		c0,0.3-0.6,6.4-6.1,7.4c-1.9,0.4-4-0.1-5.6-1.6C62.2,97.5,60.9,95,61.1,93.1"/>
</g>
<g>
	<path fill="#814795" d="M41.9,83.2c0,0,0.7,0.6,2,1.5c1.3,0.9,3.2,2.2,5.6,3.5c1.2,0.7,2.5,1.3,3.9,2c1.4,0.6,2.9,1.2,4.5,1.7
		c0.8,0.3,1.6,0.5,2.5,0.7c0.8,0.2,1.7,0.4,2.6,0.5c1.7,0.4,3.5,0.5,5.3,0.6c1.8,0,3.6,0,5.3-0.3c0.4-0.1,0.9-0.1,1.3-0.2
		c0.4-0.1,0.8-0.2,1.3-0.3c0.8-0.2,1.7-0.4,2.5-0.7c0.8-0.2,1.6-0.5,2.3-0.8c0.8-0.3,1.5-0.6,2.2-0.9c0.7-0.3,1.4-0.6,2-1
		c0.6-0.4,1.3-0.7,1.8-1c1.1-0.7,2.2-1.4,3.1-2c0.9-0.7,1.7-1.2,2.3-1.7c1.2-1,2-1.6,2-1.6s-0.6,0.7-1.7,1.8c-0.5,0.6-1.3,1.2-2.1,2
		c-0.8,0.8-1.8,1.5-2.9,2.4c-0.6,0.4-1.2,0.8-1.8,1.2c-0.6,0.4-1.3,0.8-2,1.2c-0.7,0.4-1.4,0.8-2.2,1.1c-0.8,0.3-1.6,0.7-2.4,0.9
		c-0.8,0.3-1.7,0.6-2.6,0.8c-0.4,0.1-0.9,0.2-1.3,0.3c-0.5,0.1-0.9,0.1-1.4,0.2c-1.8,0.3-3.7,0.4-5.6,0.4c-1.9-0.1-3.7-0.3-5.5-0.7
		c-1.8-0.3-3.5-0.9-5.2-1.5c-1.7-0.6-3.2-1.3-4.6-2c-1.4-0.7-2.7-1.5-3.9-2.3c-2.3-1.5-4.1-3-5.3-4.1C42.5,83.9,41.9,83.2,41.9,83.2
		z"/>
</g>
<path fill="none" stroke="#814795" stroke-width="0.75" stroke-linecap="round" stroke-linejoin="round" stroke-miterlimit="10" d="
	M46.7,82.6c0,0-6.3-1.2-9.1,2.8"/>
<path fill="none" stroke="#814795" stroke-width="0.75" stroke-linecap="round" stroke-linejoin="round" stroke-miterlimit="10" d="
	M98.2,86c0,0-3.8-5.2-8.6-4.1"/>
<path fill="#49B69F" d="M101.1,15.9c0,0,3.9,1.5,7.4-1.4c1.6-1.3,6.7-2.8,9.5,0.2c0.5,0.7,2,15-8.7,19.9c-1.5,0-7-2.9-7.4-7.9
	c-0.4-1.8-0.4-3.4-3-4.4c-2.9-1.3-4.8-0.5-6.3,0.5c-4,3.1-10.5,0.9-10.9,0c-1.8-14.2,6.9-19.6,8.5-20c4.2,0,6.6,4.8,6.7,6.8
	c0.3,4.5,3.6,6.1,3.6,6.1L101.1,15.9z"/>
<circle fill="#FFFFFF" cx="99.9" cy="18.7" r="4.6"/>
</svg>
