<?xml version="1.0" encoding="utf-8"?>
<!-- Generator: Adobe Illustrator 18.1.1, SVG Export Plug-In . SVG Version: 6.00 Build 0)  -->
<!DOCTYPE svg PUBLIC "-//W3C//DTD SVG 1.1//EN" "http://www.w3.org/Graphics/SVG/1.1/DTD/svg11.dtd">
<svg version="1.1" id="mandala_tracé" xmlns="http://www.w3.org/2000/svg" xmlns:xlink="http://www.w3.org/1999/xlink" x="0px"
	 y="0px" viewBox="0 0 99.2 99.2" enable-background="new 0 0 99.2 99.2" xml:space="preserve">
<path fill="#FFFFFF" d="M49.5,5.3c-26,0-44.1,19.2-44.1,44.4C5.4,75,23.5,94,49.5,94c26,0,44.3-19.1,44.3-44.3
	C93.8,24.5,75.5,5.3,49.5,5.3z M70,25.9c-0.7,8.4-7.8,14.1-11.1,19.9c-2.6,4.6-4.6,10.2-5,17.8c-0.3,4.7,0.1,10.1-2.7,12.4
	c-6.1,5.1-16.5-1-13.1-9.4c4.5-11.2,22-21.4,26.6-32c-2,0.8-3.5,2.3-5.7,2.7c-5.3,0.9-10.6-2.4-15.5-3c-6.1-0.8-9.3,2.4-12.5,4.7
	c-3.7-12.8,4.4-18.6,14.5-17.5c5.4,0.6,10.1,4.7,14.1,5.7c5.5,1.5,8.9-1,9.8-5C70.8,22.7,70.1,25,70,25.9z"/>
</svg>
