<?xml version="1.0" encoding="utf-8"?>
<!-- Generator: Adobe Illustrator 18.1.1, SVG Export Plug-In . SVG Version: 6.00 Build 0)  -->
<!DOCTYPE svg PUBLIC "-//W3C//DTD SVG 1.1//EN" "http://www.w3.org/Graphics/SVG/1.1/DTD/svg11.dtd">
<svg version="1.1" id="mandala_tracé" xmlns="http://www.w3.org/2000/svg" xmlns:xlink="http://www.w3.org/1999/xlink" x="0px"
	 y="0px" viewBox="0 0 136.1 136.1" enable-background="new 0 0 136.1 136.1" xml:space="preserve">
<pattern  x="8.4" y="-1.1" width="54.6" height="3.2" patternUnits="userSpaceOnUse" id="Nouvelle_nuance_de_motif_2" viewBox="0 -3.2 54.6 3.2" overflow="visible">
	<g>
		<polygon fill="none" points="0,0 54.6,0 54.6,-3.2 0,-3.2 		"/>
		<polygon fill="#EE7899" points="3.4,0 1.7,0 1.7,-3.2 3.4,-3.2 		"/>
		<polygon fill="#EE7899" points="6.8,0 5.1,0 5.1,-3.2 6.8,-3.2 		"/>
		<polygon fill="#FFFFFF" points="1.7,0 0,0 0,-3.2 1.7,-3.2 		"/>
		<polygon fill="#FFFFFF" points="5.1,0 3.4,0 3.4,-3.2 5.1,-3.2 		"/>
		<polygon fill="#EE7899" points="10.2,0 8.5,0 8.5,-3.2 10.2,-3.2 		"/>
		<polygon fill="#EE7899" points="13.6,0 11.9,0 11.9,-3.2 13.6,-3.2 		"/>
		<polygon fill="#FFFFFF" points="8.5,0 6.8,0 6.8,-3.2 8.5,-3.2 		"/>
		<polygon fill="#FFFFFF" points="11.9,0 10.2,0 10.2,-3.2 11.9,-3.2 		"/>
		<polygon fill="#EE7899" points="17.1,0 15.4,0 15.4,-3.2 17.1,-3.2 		"/>
		<polygon fill="#EE7899" points="20.5,0 18.8,0 18.8,-3.2 20.5,-3.2 		"/>
		<polygon fill="#FFFFFF" points="15.4,0 13.6,0 13.6,-3.2 15.4,-3.2 		"/>
		<polygon fill="#FFFFFF" points="18.8,0 17.1,0 17.1,-3.2 18.8,-3.2 		"/>
		<polygon fill="#EE7899" points="23.9,0 22.2,0 22.2,-3.2 23.9,-3.2 		"/>
		<polygon fill="#EE7899" points="27.3,0 25.6,0 25.6,-3.2 27.3,-3.2 		"/>
		<polygon fill="#FFFFFF" points="22.2,0 20.5,0 20.5,-3.2 22.2,-3.2 		"/>
		<polygon fill="#FFFFFF" points="25.6,0 23.9,0 23.9,-3.2 25.6,-3.2 		"/>
		<polygon fill="#EE7899" points="30.7,0 29,0 29,-3.2 30.7,-3.2 		"/>
		<polygon fill="#EE7899" points="34.1,0 32.4,0 32.4,-3.2 34.1,-3.2 		"/>
		<polygon fill="#FFFFFF" points="29,0 27.3,0 27.3,-3.2 29,-3.2 		"/>
		<polygon fill="#FFFFFF" points="32.4,0 30.7,0 30.7,-3.2 32.4,-3.2 		"/>
		<polygon fill="#EE7899" points="37.5,0 35.8,0 35.8,-3.2 37.5,-3.2 		"/>
		<polygon fill="#EE7899" points="41,0 39.2,0 39.2,-3.2 41,-3.2 		"/>
		<polygon fill="#FFFFFF" points="35.8,0 34.1,0 34.1,-3.2 35.8,-3.2 		"/>
		<polygon fill="#FFFFFF" points="39.2,0 37.5,0 37.5,-3.2 39.2,-3.2 		"/>
		<polygon fill="#EE7899" points="44.4,0 42.7,0 42.7,-3.2 44.4,-3.2 		"/>
		<polygon fill="#EE7899" points="47.8,0 46.1,0 46.1,-3.2 47.8,-3.2 		"/>
		<polygon fill="#FFFFFF" points="42.7,0 40.9,0 40.9,-3.2 42.7,-3.2 		"/>
		<polygon fill="#FFFFFF" points="46.1,0 44.4,0 44.4,-3.2 46.1,-3.2 		"/>
		<polygon fill="#EE7899" points="51.2,0 49.5,0 49.5,-3.2 51.2,-3.2 		"/>
		<polygon fill="#EE7899" points="54.6,0 52.9,0 52.9,-3.2 54.6,-3.2 		"/>
		<polygon fill="#FFFFFF" points="49.5,0 47.8,0 47.8,-3.2 49.5,-3.2 		"/>
		<polygon fill="#FFFFFF" points="52.9,0 51.2,0 51.2,-3.2 52.9,-3.2 		"/>
	</g>
</pattern>
<ellipse fill="#DADADA" cx="67.8" cy="130.6" rx="27.9" ry="4"/>
<path fill="#49B69F" d="M126.6,112H9c-1.3,0-2.3-1-2.3-2.3V18.7c0-1.3,1-2.3,2.3-2.3h117.7c1.3,0,2.3,1,2.3,2.3v91.1
	C128.9,111,127.9,112,126.6,112z"/>
<path fill="#2F917E" d="M7,108.9l-0.2,0.1c0,0,0.9,2.9,4.8,2.9c0.2,0,56.1-47.9,56.1-47.9L7,108.9z"/>
<path fill="#2F917E" d="M128.7,108.9l0.2,0.1c0,0-0.9,2.9-4.8,2.9c-0.2,0-56.1-47.9-56.1-47.9L128.7,108.9z"/>
<path fill="url(#Nouvelle_nuance_de_motif_2)" d="M6.8,21.4l61,42.7l61-42.7c0,0,0.1-5-4.1-5C67.9,57.5,67.9,57.5,67.9,57.5
	L10.9,16.4C10.9,16.4,6,15.6,6.8,21.4z"/>
<g>
	<path fill="#2F917E" d="M83.4,65.3c-0.3-7.9-6.3-13.8-14.5-13.5c-8.2,0.3-13.7,6.6-13.4,14.5c0.3,7.9,6.2,13.7,14.4,13.4
		C78.1,79.5,83.7,73.3,83.4,65.3"/>
</g>
<path fill="none" stroke="#EE7899" stroke-width="1.5" stroke-miterlimit="10" d="M126.6,112.1H9c-1.3,0-2.3-1-2.3-2.3V18.7
	c0-1.3,1-2.3,2.3-2.3h117.7c1.3,0,2.3,1,2.3,2.3v91.1C128.9,111.1,127.9,112.1,126.6,112.1z"/>
<g>
	<path fill="none" stroke="#FFFFFF" stroke-width="2" stroke-miterlimit="10" d="M80.6,64c0-7.3-5.3-12.9-12.9-12.9
		c-7.6,0-12.8,5.6-12.8,12.9c0,7.3,5.3,12.9,12.8,12.9C75.3,76.9,80.6,71.3,80.6,64"/>
</g>
<g>
	<g>
		<path fill="#FFFFFF" d="M79.2,63.6c-0.2-6.5-5.2-11.3-11.9-11.1c-6.7,0.3-11.2,5.4-11,11.9c0.2,6.5,5.1,11.3,11.9,11
			C74.9,75.2,79.4,70.1,79.2,63.6"/>
	</g>
	<g>
		<path fill="#844695" d="M73.7,57.1c-0.2,2.5-2.3,4.1-3.2,5.8c-0.8,1.3-1.3,3-1.5,5.2c-0.1,1.4,0,2.9-0.8,3.6
			c-1.8,1.5-4.8-0.3-3.8-2.7c1.5-4.1,6.1-6.2,7.5-9.2c-0.6,0.2-0.6,0.6-1.4,0.7c-1.5,0.3-3.1-0.7-4.5-0.9c-1.8-0.2-2.7,0.7-3.6,1.4
			c-1.1-3.7,1.3-5.4,4.2-5.1c1.6,0.2,2.9,1.4,4.1,1.7c1.6,0.4,2.6-0.3,2.8-1.5C73.9,56.2,73.7,56.8,73.7,57.1 M80.6,64
			c0-7.3-5.3-12.9-12.9-12.9c-7.6,0-12.8,5.6-12.8,12.9c0,7.3,5.3,12.9,12.8,12.9C75.3,76.9,80.6,71.3,80.6,64"/>
	</g>
</g>
</svg>
