<?xml version="1.0" encoding="utf-8"?>
<!-- Generator: Adobe Illustrator 18.1.1, SVG Export Plug-In . SVG Version: 6.00 Build 0)  -->
<!DOCTYPE svg PUBLIC "-//W3C//DTD SVG 1.1//EN" "http://www.w3.org/Graphics/SVG/1.1/DTD/svg11.dtd">
<svg version="1.1" id="mandala_tracé" xmlns="http://www.w3.org/2000/svg" xmlns:xlink="http://www.w3.org/1999/xlink" x="0px"
	 y="0px" viewBox="0 0 133.9 116" enable-background="new 0 0 133.9 116" xml:space="preserve">
<path fill="#FFFFFF" d="M2.1,20c0.5-7.6,7.3-9.9,14-9.9c5.9,0,13,1.3,13,8.4V34c0,2.7,0.3,5.4,1,6.6h-8.3c-0.3-0.9-0.5-1.9-0.6-2.9
	c-2.6,2.7-6.4,3.7-10,3.7c-5.6,0-10.1-2.8-10.1-8.9c0-6.7,5.1-8.3,10.1-9c5-0.7,9.7-0.6,9.7-3.9c0-3.5-2.4-4-5.3-4
	c-3.1,0-5.1,1.3-5.4,4.5H2.1z M21,26c-1.4,1.2-4.3,1.3-6.8,1.7c-2.5,0.5-4.8,1.4-4.8,4.4c0,3,2.4,3.8,5,3.8c6.4,0,6.6-5.1,6.6-6.8
	V26z"/>
<path fill="#FFFFFF" d="M25.2,80.3C25.2,88.7,31.4,92,39,92c8.4,0,11.5-4.1,11.5-8.2c0-4.2-2.3-5.9-4.5-6.7
	c-3.8-1.4-8.8-2.4-16.2-4.5c-9.3-2.5-12-8.1-12-13.8c0-10.9,10.1-16,19.9-16c11.3,0,20.9,6,20.9,17.4H49c-0.5-7-5.2-9.6-11.7-9.6
	c-4.4,0-10,1.6-10,7.1c0,3.8,2.6,5.9,6.5,7c0.8,0.2,12.9,3.4,15.7,4.2c7.2,2.1,10.6,8.2,10.6,13.9c0,12.2-10.8,17.1-21.6,17.1
	C26,99.7,16,93.8,15.7,80.3H25.2z"/>
<path fill="#FFFFFF" d="M32,2.6h7.9v5.6l0.1,0.1c2.5-4.2,6.8-6.7,11.8-6.7c8.2,0,13.4,4.4,13.4,12.9v26h-8.3V16.6
	c-0.1-5.9-2.5-8.5-7.4-8.5c-5.6,0-9.1,4.4-9.1,10v22.3H32V2.6z"/>
<path fill="#FFFFFF" d="M67.7,2.6h7.9v5.6l0.1,0.1c2.5-4.2,6.8-6.7,11.8-6.7c8.2,0,13.4,4.4,13.4,12.9v26h-8.3V16.7
	c-0.1-5.9-2.5-8.5-7.4-8.5c-5.6,0-9.1,4.4-9.1,10v22.3h-8.3V2.6z"/>
<path fill="#FFFFFF" d="M111.4,27c0.2,5.2,2.8,7.5,7.3,7.5c3.3,0,5.9-2,6.4-3.8h7.2c-2.3,7-7.2,10-13.9,10
	c-9.4,0-15.2-6.4-15.2-15.6c0-8.9,6.1-15.7,15.2-15.7c10.1,0,15,8.5,14.4,17.6H111.4z M124.7,21.9c-0.7-4.1-2.5-6.3-6.5-6.3
	c-5.2,0-6.7,4-6.8,6.3H124.7z"/>
<path fill="#FFFFFF" d="M90.4,42.9c-16.5,0-28,12.2-28,28.2c0,16,11.5,28.1,28,28.1c16.5,0,28.1-12.1,28.1-28.1
	C118.5,55.1,106.9,42.9,90.4,42.9z M103.4,56c-0.5,5.4-5,9-7,12.6c-1.7,2.9-2.9,6.5-3.2,11.3c-0.2,3,0.1,6.4-1.7,7.9
	c-3.8,3.2-10.5-0.7-8.3-6C86,74.7,97.1,68.2,100,61.5c-1.3,0.5-2.2,1.5-3.6,1.7c-3.4,0.6-6.7-1.5-9.8-1.9c-3.9-0.5-5.9,1.5-7.9,3
	c-2.3-8.1,2.8-11.8,9.2-11.1c3.4,0.4,6.4,3,9,3.6c3.5,0.9,5.6-0.6,6.2-3.2C103.9,53.9,103.4,55.4,103.4,56z"/>
<g>
	<path fill="#FFFFFF" d="M15.5,106.2h1.9c2.5,0,3.4,1.5,3.4,4.1c0,3.7-1.7,4.2-3.7,4.2h-1.6V106.2z M16.4,113.7h0.6
		c1.6,0,2.7-0.5,2.7-3.4c0-3-1.2-3.3-2.8-3.3h-0.5V113.7z"/>
	<path fill="#FFFFFF" d="M23,106.2h4v0.8h-3.1v2.8h2.9v0.8h-2.9v3.2h3.2v0.8H23V106.2z"/>
	<path fill="#FFFFFF" d="M31.7,110c0.8,0.5,1.8,1,1.8,2.3c0,1.7-1.4,2.3-2.9,2.3c-0.9,0-1.7-0.2-1.9-0.3v-1c0.2,0.1,1,0.4,2,0.4
		c1,0,1.8-0.5,1.8-1.4c0-0.9-0.7-1.3-1.4-1.7l-0.7-0.4c-0.8-0.4-1.8-0.9-1.8-2.1c0-1.4,1.1-2.1,2.7-2.1c0.8,0,1.4,0.2,1.7,0.2v0.9
		c-0.2-0.1-0.9-0.4-1.8-0.4c-0.9,0-1.6,0.5-1.6,1.3c0,0.7,0.7,1.1,1.4,1.5L31.7,110z"/>
	<path fill="#FFFFFF" d="M35.6,106.2h0.9v8.3h-0.9V106.2z"/>
	<path fill="#FFFFFF" d="M44.5,113.8c-0.2,0.2-1.1,0.8-2.4,0.8c-2.6,0-3.3-2.1-3.3-4.5c0-2.1,0.8-4,3.1-4c1.6,0,2.7,1,2.7,2.4h-1.1
		c0-0.7-0.4-1.6-1.6-1.6c-1.7,0-2.1,1.7-2.1,3.2c0,1.6,0.3,3.8,2.2,3.8c0.8,0,1.4-0.3,1.5-0.5v-2.8h-1.9v-0.8h2.8V113.8z"/>
	<path fill="#FFFFFF" d="M46.9,106.2h1.2l3.4,7h0v-7h0.9v8.3h-1.2l-3.4-7h0v7h-0.9V106.2z"/>
	<path fill="#FFFFFF" d="M64.1,113.8c-0.2,0.2-1.1,0.8-2.4,0.8c-2.6,0-3.3-2.1-3.3-4.5c0-2.1,0.8-4,3.1-4c1.6,0,2.7,1,2.7,2.4h-1.1
		c0-0.7-0.4-1.6-1.6-1.6c-1.7,0-2.1,1.7-2.1,3.2c0,1.6,0.3,3.8,2.2,3.8c0.8,0,1.4-0.3,1.5-0.5v-2.8h-1.9v-0.8h2.8V113.8z"/>
	<path fill="#FFFFFF" d="M66.5,106.2h2.1c0.6,0,2.6,0.1,2.6,2.1c0,1.5-0.9,1.9-1.7,2.1v0c1.1,0.3,1.2,0.9,1.4,1.8l0.5,2.3h-0.9
		l-0.4-1.9c-0.3-1.2-0.5-1.8-1.8-1.8h-0.9v3.7h-0.9V106.2z M67.4,110H68c1.1,0,2.3-0.3,2.3-1.6c0-1.4-1.1-1.4-2.1-1.4h-0.7V110z"/>
	<path fill="#FFFFFF" d="M75.3,106.2h1.1l2.7,8.3h-0.9l-0.8-2.6h-3l-0.8,2.6h-0.9L75.3,106.2z M74.6,111.2h2.4l-1.2-4.1h0
		L74.6,111.2z"/>
	<path fill="#FFFFFF" d="M80.8,106.2h1.9c0.6,0,2.6,0,2.6,2.3c0,1.7-1.1,2.3-2.6,2.3h-1v3.7h-0.9V106.2z M81.8,110h1
		c1.2,0,1.7-0.6,1.7-1.5c0-1.5-1.2-1.5-1.9-1.5h-0.8V110z"/>
	<path fill="#FFFFFF" d="M87.2,106.2h0.9v3.6h3.4v-3.6h0.9v8.3h-0.9v-3.9h-3.4v3.9h-0.9V106.2z"/>
	<path fill="#FFFFFF" d="M95.2,106.2h0.9v8.3h-0.9V106.2z"/>
	<path fill="#FFFFFF" d="M101.4,114.5c-2.4,0-3-2.3-3-4.1c0-2.1,0.6-4.3,3-4.3c2.4,0,2.9,2.2,2.9,4.3c0,2-0.6,3.1-1.1,3.4l0,0
		l1.7-0.1v0.8H101.4z M101.4,113.7c1.8,0,2-1.8,2-3.4c0-1.5-0.3-3.5-1.9-3.5c-1.8,0-2,2-2,3.5C99.4,111.7,99.7,113.7,101.4,113.7z"
		/>
	<path fill="#FFFFFF" d="M111.9,111.8c0,1.1-0.2,2.8-2.7,2.8c-2.3,0-2.5-1.7-2.5-2.8v-5.6h0.9v5.4c0,0.9,0.1,2.2,1.6,2.2
		c1.7,0,1.7-1.3,1.7-2.2v-5.4h0.9V111.8z"/>
	<path fill="#FFFFFF" d="M114.5,106.2h4v0.8h-3.1v2.8h2.9v0.8h-2.9v3.2h3.2v0.8h-4.1V106.2z"/>
</g>
</svg>
