<?xml version="1.0" encoding="utf-8"?>
<!-- Generator: Adobe Illustrator 18.1.0, SVG Export Plug-In . SVG Version: 6.00 Build 0)  -->
<!DOCTYPE svg PUBLIC "-//W3C//DTD SVG 1.1//EN" "http://www.w3.org/Graphics/SVG/1.1/DTD/svg11.dtd">
<svg version="1.1" id="Calque_1" xmlns="http://www.w3.org/2000/svg" xmlns:xlink="http://www.w3.org/1999/xlink" x="0px" y="0px"
	 viewBox="0 0 40.9 70.8" enable-background="new 0 0 40.9 70.8" xml:space="preserve">
<g>
	<path fill="#ED779A" d="M26.6,29.2c0,2.1,1.7,3.8,3.8,3.8c2.1,0,3.8-1.7,3.8-3.8c0-2.1-1.7-3.8-3.8-3.8
		C28.3,25.4,26.6,27.1,26.6,29.2"/>
	<path fill="#ED779A" d="M39.6,26.1c-0.1,0-0.3-0.1-0.4-0.1c-0.7,0-1.4,0.5-1.6,1.2l-1.5,5.7l-3.3,1.5H27c-0.1,0-0.2,0-0.3,0
		c-0.3,0.1-0.6,0.2-0.9,0.5l-5.8,6.4c-0.6,0.6-0.6,1.7,0.1,2.3c0.3,0.3,0.7,0.4,1.1,0.4c0.4,0,0.9-0.2,1.2-0.5l3.4-3.8l-1.8,9.4h1.7
		l-0.3,8.3c0,1,0.8,1.9,1.8,1.9c0,0,0,0,0.1,0c1,0,1.8-0.8,1.9-1.8l0.3-8.4h1.7l1.1,8.6c0.1,0.9,0.9,1.6,1.8,1.6c0.1,0,0.2,0,0.2,0
		c1-0.1,1.7-1.1,1.6-2.1L35,49.1h1.7l-2.5-11.3l0-0.4l4.1-1.9c0.4-0.2,0.8-0.6,0.9-1.1l1.7-6.5C41,27.2,40.5,26.3,39.6,26.1"/>
	<g>
		<path fill="none" stroke="#FFFFFF" stroke-width="1.3" stroke-miterlimit="10" d="M14.5,57.1c0,0.8-0.7,1.5-1.6,1.5H2.2
			c-0.9,0-1.6-0.7-1.6-1.5V2.1c0-0.8,0.7-1.5,1.6-1.5h10.7c0.9,0,1.6,0.7,1.6,1.5V57.1z"/>
	</g>
	<path fill="none" stroke="#FFFFFF" stroke-width="1.3" stroke-linecap="round" stroke-linejoin="round" stroke-miterlimit="10" d="
		M1.8,40.2h7.5 M1.8,23.5h7.5 M1.4,53.3h4.2 M1.4,44.5h4.2 M1.4,48.7h4.2 M1.4,36.3h4.2 M1.4,27.6h4.2 M1.4,31.8h4.2 M1.4,19.4h4.2
		 M1.4,10.7h4.2 M1.4,14.9h4.2 M1.8,6.6h7.5"/>
</g>
<ellipse fill="#D9D9D9" cx="20.8" cy="68.2" rx="18.3" ry="2.6"/>
</svg>
