<?xml version="1.0" encoding="UTF-8"?>
<!-- Generator: Adobe Illustrator 18.1.1, SVG Export Plug-In . SVG Version: 6.00 Build 0)  -->
<!DOCTYPE svg PUBLIC "-//W3C//DTD SVG 1.1//EN" "http://www.w3.org/Graphics/SVG/1.1/DTD/svg11.dtd">
<svg version="1.1" id="mandala_tracé" xmlns="http://www.w3.org/2000/svg" xmlns:xlink="http://www.w3.org/1999/xlink" x="0px" y="0px" viewBox="0 0 136.1 136.1" enable-background="new 0 0 136.1 136.1" xml:space="preserve">
<ellipse fill="#DADADA" cx="67.8" cy="130.6" rx="27.9" ry="4"/>
<path fill="#FFFFFF" d="M30.2,36.2l12.7,79.3c0,0,24.1,12.4,46.1,0c13.6-79.2,13.6-79.2,13.6-79.2s0-12-36.2-12  C30.2,24.2,30.2,36.2,30.2,36.2z"/>
<circle fill="#EE704C" cx="31.6" cy="34.7" r="19.2"/>
<circle fill="#52A7DC" cx="59.9" cy="86" r="7"/>
<circle fill="#EE7899" cx="59.9" cy="106" r="4.4"/>
<circle fill="#52A7DC" cx="85.4" cy="79.5" r="3.9"/>
<circle fill="#EE7899" cx="54.8" cy="69.2" r="2.1"/>
<circle fill="#49B69F" cx="85.8" cy="92.1" r="2.1"/>
<circle fill="#EE7899" cx="91.3" cy="60.1" r="2.1"/>
<circle fill="#49B69F" cx="48.1" cy="101.6" r="2.1"/>
<circle fill="#52A7DC" cx="87.9" cy="56" r="1.2"/>
<circle fill="#49B69F" cx="52" cy="73.8" r="1.2"/>
<circle fill="#52A7DC" cx="42.7" cy="58" r="1.2"/>
<circle fill="#52A7DC" cx="41" cy="78.9" r="1.2"/>
<circle fill="#52A7DC" cx="54.8" cy="113.2" r="1.2"/>
<circle fill="#52A7DC" cx="79.2" cy="106.7" r="1.2"/>
<circle fill="#FFFFFF" cx="55.9" cy="83.8" r="1.1"/>
<circle fill="#FFFFFF" cx="57.3" cy="106.7" r="0.7"/>
<circle fill="#49B69F" cx="73.8" cy="63.2" r="4.4"/>
<circle fill="#FFFFFF" cx="71.2" cy="63.9" r="0.7"/>
<circle fill="#FFFFFF" cx="82.9" cy="78.9" r="0.7"/>
<circle fill="#52A7DC" cx="52" cy="57.5" r="3.9"/>
<circle fill="#FFFFFF" cx="49.5" cy="56.9" r="0.7"/>
<circle fill="#52A7DC" cx="75.2" cy="99.9" r="3.9"/>
<polyline fill="none" stroke="#814795" stroke-width="4" stroke-linecap="round" stroke-linejoin="round" stroke-miterlimit="10" points="  69.1,111 87,18 112,9.3 "/>
<path fill="none" stroke="#52A7DC" stroke-width="2" stroke-linecap="round" stroke-linejoin="round" stroke-miterlimit="10" d="  M30.6,36.3c0,0,0,11.9,36.4,11.9c36.4,0,36.8-12,36.8-12"/>
<circle fill="#FFFFFF" cx="77.5" cy="98.8" r="0.7"/>
</svg>