<?xml version="1.0" encoding="utf-8"?>
<!-- Generator: Adobe Illustrator 18.1.1, SVG Export Plug-In . SVG Version: 6.00 Build 0)  -->
<!DOCTYPE svg PUBLIC "-//W3C//DTD SVG 1.1//EN" "http://www.w3.org/Graphics/SVG/1.1/DTD/svg11.dtd">
<svg version="1.1" id="mandala_tracé" xmlns="http://www.w3.org/2000/svg" xmlns:xlink="http://www.w3.org/1999/xlink" x="0px"
	 y="0px" viewBox="0 0 136.1 106.7" enable-background="new 0 0 136.1 106.7" xml:space="preserve">
<ellipse fill="#DADADA" cx="67.8" cy="101.2" rx="27.9" ry="4"/>
<path fill="none" stroke="#EE7899" stroke-width="0.75" stroke-miterlimit="10" d="M29.8,76.8c0,0-5.2-2.7-3,1.1
	c0.8,1.5,2.4,5.1-1.1,1.7c-0.7-0.9-3-2.9-1.1,1c0.7,1.7,0.6,2.6-1.7,0c-0.9-1-2.3-2.9-0.9,2.4c0.3,1.9-0.3,2.1-1.9-0.9
	c-0.7-1.2-1.9-2.6-1.5,1.5c0,2.7-1,2.6-1.7-0.5c-0.5-1.9-0.9-2.1-1.7,0c-0.9,1.9-2.1,3-1.7-0.5c0.2-2.2,0.5-2.7-1.2-0.5
	c-1.4,1.5-2.6,1.9-1.4-1c1-2.2,0.9-3.4-1.3-1.2c-1,1.2-3,1.7-0.9-1.2c1.4-1.9,1.4-2.2-0.9-1.5C6.3,77.8,3.9,78,7,75.6
	c1.7-1.2,1.4-1.4-1.4-0.9c-1.6,0.3-2.4-0.7,0-2.1c1.9-1,1.8-1.4-0.5-1.4c-2.1,0-2.4-0.6,0.3-1.8c2.5-1,2.2-1.7-0.5-1.5
	c-1.9,0.2-3.8-0.7,0-1.7c1.7-0.3,2.8-0.8-0.3-1.5c-2.3-0.4-3.8-1.5,0.4-1.9c1.8-0.1,2.8-0.7-0.2-1.5c-2.2-0.6-2.6-1.3,0.4-1.6
	c2.1-0.2,3-0.7,0.2-1.4c-2.1-0.6-3.4-1.5,0.4-1.7c2.1-0.1,2.7-0.3,0.4-1.5c-2.1-0.9-2.8-2.1,0.5-1.8c2.1,0.1,3.1-0.3,0.1-2
	c-1.5-0.9-2.4-1.5,1-1.4c2.2,0.1,2.3-0.2,0.3-1.3c-2-1.1-2.1-1.6,0.7-1.5c2.7,0.2,3.1,0.3,0.9-1.4c-1.3-1-2.8-2.1,0.6-1.5
	c2.1,0.3,4,0.5,1-1.7c-1.5-1.1-2.4-2,1-1.1c1.8,0.4,2.7,0.6,0.6-1.1s-3.2-3.5,0.9-1.8c1.1,0.3,1.6,0.1,1.6-2.6"/>
<path fill="#49B69F" d="M104.7,48.6C95.1,35,89.8,29.7,89.9,20.7c0,0-7.1-4.3-22.1-4.3c-14.6,0-22.1,4.3-22.1,4.3
	c0.2,8.9-5.2,14.3-14.8,27.9c-15.3,19.5-1.2,29.7,0.7,30.9c2.5,2.5,16.8,4.3,36.2,4.3c19.1,0,33.5-1.6,36.1-4.2
	C104.9,79,120.5,68.8,104.7,48.6z"/>
<circle fill="#49B69F" stroke="#EE7899" stroke-miterlimit="10" cx="67.8" cy="46.6" r="21.4"/>
<circle fill="#FFFFFF" cx="59.6" cy="33.5" r="2.6"/>
<circle fill="#FFFFFF" cx="54.2" cy="39.2" r="2.6"/>
<circle fill="#FFFFFF" cx="76.1" cy="33.5" r="2.6"/>
<circle fill="#FFFFFF" cx="81.5" cy="39.2" r="2.6"/>
<circle fill="#FFFFFF" cx="52.3" cy="46.6" r="2.6"/>
<circle fill="#FFFFFF" cx="67.8" cy="31.1" r="2.6"/>
<circle fill="#FFFFFF" cx="76" cy="59.7" r="2.6"/>
<circle fill="#FFFFFF" cx="59.5" cy="59.7" r="2.6"/>
<circle fill="#FFFFFF" cx="54" cy="53.9" r="2.6"/>
<circle fill="#FFFFFF" cx="83.3" cy="46.6" r="2.6"/>
<circle fill="#FFFFFF" cx="67.8" cy="62" r="2.6"/>
<path fill="#FFFFFF" d="M90.4,55.8v4c0,0-9.2-1.2-11.7-6.6c-0.4-0.8-0.4-2.9,1.2-1C80.9,53.2,84.4,55.8,90.4,55.8z"/>
<path fill="#814795" d="M109.7,9.7C95.2,1.5,67.7,1.5,67.7,1.5s-27.6,0-42.1,8.2C23,9.6,9.1,12.4,11,29.3c0.2,2.5,2.1,7.1,5.2,9.8
	c1.1,1.2,2.6,1.7,3.7,2c1.9,0.2,8.1,0.6,16.8-8.2c2.9-3,7.1-8.4,7-13.7c-0.4-0.8-0.9-1.8-1.4-2.4c-0.6-0.9-1.5-1.7-3-2.6
	c3.5-0.5,12.5-2.6,28.4-2.7c16,0.2,24.9,2.2,28.4,2.7c-1.6,0.9-2.5,1.9-3.1,2.8c-0.7,1.1-1,1.7-1.3,2.2c-0.2,5.3,4.1,10.8,7,13.7
	c8.7,8.8,14.9,8.4,16.8,8.2c1.1-0.3,2.9-1.3,3.9-2.2c3-2.7,4.8-7.1,5-9.6C126.2,12.4,112.3,9.6,109.7,9.7z"/>
</svg>
