<?xml version="1.0" encoding="utf-8"?>
<!-- Generator: Adobe Illustrator 18.1.0, SVG Export Plug-In . SVG Version: 6.00 Build 0)  -->
<!DOCTYPE svg PUBLIC "-//W3C//DTD SVG 1.1//EN" "http://www.w3.org/Graphics/SVG/1.1/DTD/svg11.dtd">
<svg version="1.1" id="Calque_2" xmlns="http://www.w3.org/2000/svg" xmlns:xlink="http://www.w3.org/1999/xlink" x="0px" y="0px"
	 viewBox="0 0 89.3 69.2" enable-background="new 0 0 89.3 69.2" xml:space="preserve">
<path fill="none" stroke="#EE7899" stroke-width="0.75" stroke-miterlimit="10" d="M20.3,54.8c0,0-3.8-2-2.2,0.8
	c0.6,1.1,1.7,3.7-0.8,1.2c-0.5-0.6-2.2-2.1-0.8,0.7c0.5,1.3,0.4,1.9-1.2,0c-0.7-0.7-1.7-2.1-0.7,1.8c0.2,1.4-0.3,1.5-1.4-0.6
	c-0.5-0.9-1.4-1.9-1.1,1.1c0,1.9-0.8,1.9-1.2-0.4c-0.4-1.4-0.6-1.5-1.2,0c-0.6,1.4-1.5,2.2-1.2-0.4c0.1-1.6,0.4-2-0.9-0.4
	c-1,1.1-1.9,1.4-1-0.8c0.8-1.6,0.7-2.5-0.9-0.9c-0.8,0.9-2.2,1.2-0.7-0.9c1-1.4,1-1.6-0.7-1.1c-1,0.4-2.7,0.6-0.5-1.2
	c1.3-0.9,1-1-1-0.7c-1.1,0.2-1.7-0.5,0-1.5c1.4-0.7,1.3-1-0.4-1c-1.5,0-1.8-0.4,0.2-1.3c1.8-0.7,1.6-1.2-0.3-1.1
	c-1.4,0.1-2.8-0.5,0-1.2c1.3-0.2,2-0.6-0.2-1.1c-1.7-0.3-2.7-1.1,0.3-1.4c1.3-0.1,2.1-0.5-0.1-1.1c-1.6-0.4-1.9-0.9,0.3-1.2
	c1.5-0.1,2.2-0.5,0.1-1.1c-1.6-0.5-2.5-1.1,0.3-1.3C4.5,40,5,39.9,3.3,39c-1.6-0.7-2-1.5,0.4-1.3c1.5,0.1,2.3-0.2,0.1-1.4
	c-1.1-0.6-1.7-1.1,0.8-1c1.6,0.1,1.7-0.1,0.2-0.9c-1.4-0.8-1.6-1.2,0.5-1.1c1.9,0.1,2.2,0.2,0.6-1c-0.9-0.8-2.1-1.6,0.4-1.1
	c1.5,0.2,2.9,0.3,0.8-1.3c-1.1-0.8-1.7-1.5,0.8-0.8c1.3,0.3,2,0.4,0.4-0.8c-1.6-1.2-2.4-2.6,0.6-1.3c0.8,0.3,1.2,0.1,1.2-1.9"/>
<ellipse fill="#DADADA" cx="47.9" cy="66.5" rx="24" ry="2.8"/>
<path fill="#49B69F" d="M74.8,34.3C67.8,24.4,64,20.5,64.1,14c0,0-5.2-3.1-16.1-3.1c-10.7,0-16.1,3.1-16.1,3.1
	c0.1,6.5-3.8,10.4-10.8,20.3C10,48.5,20.2,55.9,21.6,56.8c1.8,1.8,12.2,3.2,26.3,3.2c13.9,0,24.4-1.2,26.3-3.1
	C75,56.4,86.3,48.9,74.8,34.3z"/>
<circle fill="#49B69F" stroke="#EE7899" stroke-miterlimit="10" cx="48" cy="32.8" r="15.6"/>
<circle fill="#FFFFFF" cx="42" cy="23.3" r="1.9"/>
<circle fill="#FFFFFF" cx="38.1" cy="27.5" r="1.9"/>
<circle fill="#FFFFFF" cx="54" cy="23.3" r="1.9"/>
<circle fill="#FFFFFF" cx="58" cy="27.5" r="1.9"/>
<circle fill="#FFFFFF" cx="36.7" cy="32.8" r="1.9"/>
<circle fill="#FFFFFF" cx="48" cy="21.5" r="1.9"/>
<circle fill="#FFFFFF" cx="53.9" cy="42.3" r="1.9"/>
<circle fill="#FFFFFF" cx="41.9" cy="42.3" r="1.9"/>
<circle fill="#FFFFFF" cx="38" cy="38.1" r="1.9"/>
<circle fill="#FFFFFF" cx="59.2" cy="32.8" r="1.9"/>
<circle fill="#FFFFFF" cx="48" cy="44.1" r="1.9"/>
<path fill="#FFFFFF" d="M64.4,39.6v2.9c0,0-6.7-0.9-8.5-4.8c-0.3-0.6-0.3-2.1,0.9-0.8C57.5,37.6,60.1,39.6,64.4,39.6z"/>
<path fill="#814795" d="M78.5,6C67.9,0,47.9,0,47.9,0S27.8,0,17.3,6c-1.9-0.1-12,1.9-10.6,14.2c0.2,1.8,1.5,5.1,3.8,7.1
	c0.8,0.9,1.9,1.3,2.7,1.4c1.4,0.1,5.9,0.4,12.2-6c2.1-2.1,5.2-6.1,5.1-10c-0.3-0.6-0.7-1.3-1-1.7c-0.4-0.6-1.1-1.3-2.2-1.9
	c2.6-0.4,9.1-1.9,20.7-2c11.6,0.1,18.1,1.6,20.7,2c-1.2,0.7-1.8,1.4-2.3,2c-0.5,0.8-0.7,1.3-0.9,1.6c-0.1,3.9,3,7.9,5.1,10
	c6.3,6.4,10.8,6.1,12.2,6c0.8-0.2,2.1-0.9,2.9-1.6c2.2-2,3.5-5.2,3.6-7C90.5,7.9,80.4,5.9,78.5,6z"/>
</svg>
